 <svg xmlns="http://www.w3.org/2000/svg" display="none">
          <symbol id="burger-icon" viewBox="0 0 24 24">
            <g>
              <path
                d="M3 18h18v-2H3v2zm0-5h18v-2H3v2zm0-7v2h18V6H3z"
              ></path>
            </g>
          </symbol>
          <symbol id="linkedin-icon" viewBox="0 0 26 27">
             <g>
                <path d="M20.5833 3.2627C21.158 3.2627 21.7091 3.49185 22.1154 3.89975C22.5217 4.30765 22.75 4.86087 22.75 5.43773V20.663C22.75 21.2398 22.5217 21.793 22.1154 22.2009C21.7091 22.6088 21.158 22.838 20.5833 22.838H5.41667C4.84203 22.838 4.29093 22.6088 3.8846 22.2009C3.47827 21.793 3.25 21.2398 3.25 20.663V5.43773C3.25 4.86087 3.47827 4.30765 3.8846 3.89975C4.29093 3.49185 4.84203 3.2627 5.41667 3.2627H20.5833ZM20.0417 20.1192V14.3554C20.0417 13.4151 19.6696 12.5133 19.0073 11.8485C18.3449 11.1836 17.4467 10.8101 16.51 10.8101C15.5892 10.8101 14.5167 11.3756 13.9967 12.2238V11.0167H10.9742V20.1192H13.9967V14.7577C13.9967 13.9204 14.6683 13.2352 15.5025 13.2352C15.9047 13.2352 16.2905 13.3956 16.5749 13.6812C16.8594 13.9667 17.0192 14.3539 17.0192 14.7577V20.1192H20.0417ZM7.45333 9.30929C7.93603 9.30929 8.39895 9.1168 8.74027 8.77416C9.08158 8.43153 9.27333 7.96682 9.27333 7.48226C9.27333 6.47087 8.46083 5.64436 7.45333 5.64436C6.96777 5.64436 6.50209 5.83799 6.15874 6.18266C5.81539 6.52734 5.6225 6.99482 5.6225 7.48226C5.6225 8.49365 6.44583 9.30929 7.45333 9.30929ZM8.95917 20.1192V11.0167H5.95833V20.1192H8.95917Z" />
             </g>
          </symbol>
          <symbol id="close-icon" viewBox="0 0 24 24">
             <g xmlns="http://www.w3.org/2000/svg" width="24" height="24" viewBox="0 0 24 24"><path d="M19 6.41L17.59 5 12 10.59 6.41 5 5 6.41 10.59 12 5 17.59 6.41 19 12 13.41 17.59 19 19 17.59 13.41 12z" fill="#fff"/><path d="M0 0h24v24H0z" fill="none"/></g>
          </symbol>
        </svg>