 <svg xmlns="http://www.w3.org/2000/svg" display="none">
          <symbol id="burger-icon" viewBox="0 0 24 24">
            <g>
              <path
                d="M3 18h18v-2H3v2zm0-5h18v-2H3v2zm0-7v2h18V6H3z"
              ></path>
            </g>
          </symbol>
          <symbol id="linkedin-icon" viewBox="0 0 26 27">
             <g>
                <path d="M20.5833 3.2627C21.158 3.2627 21.7091 3.49185 22.1154 3.89975C22.5217 4.30765 22.75 4.86087 22.75 5.43773V20.663C22.75 21.2398 22.5217 21.793 22.1154 22.2009C21.7091 22.6088 21.158 22.838 20.5833 22.838H5.41667C4.84203 22.838 4.29093 22.6088 3.8846 22.2009C3.47827 21.793 3.25 21.2398 3.25 20.663V5.43773C3.25 4.86087 3.47827 4.30765 3.8846 3.89975C4.29093 3.49185 4.84203 3.2627 5.41667 3.2627H20.5833ZM20.0417 20.1192V14.3554C20.0417 13.4151 19.6696 12.5133 19.0073 11.8485C18.3449 11.1836 17.4467 10.8101 16.51 10.8101C15.5892 10.8101 14.5167 11.3756 13.9967 12.2238V11.0167H10.9742V20.1192H13.9967V14.7577C13.9967 13.9204 14.6683 13.2352 15.5025 13.2352C15.9047 13.2352 16.2905 13.3956 16.5749 13.6812C16.8594 13.9667 17.0192 14.3539 17.0192 14.7577V20.1192H20.0417ZM7.45333 9.30929C7.93603 9.30929 8.39895 9.1168 8.74027 8.77416C9.08158 8.43153 9.27333 7.96682 9.27333 7.48226C9.27333 6.47087 8.46083 5.64436 7.45333 5.64436C6.96777 5.64436 6.50209 5.83799 6.15874 6.18266C5.81539 6.52734 5.6225 6.99482 5.6225 7.48226C5.6225 8.49365 6.44583 9.30929 7.45333 9.30929ZM8.95917 20.1192V11.0167H5.95833V20.1192H8.95917Z" />
             </g>
          </symbol>
          <symbol id="close-icon" viewBox="0 0 24 24">
             <g xmlns="http://www.w3.org/2000/svg" width="24" height="24" viewBox="0 0 24 24"><path d="M19 6.41L17.59 5 12 10.59 6.41 5 5 6.41 10.59 12 5 17.59 6.41 19 12 13.41 17.59 19 19 17.59 13.41 12z" fill="#fff"/><path d="M0 0h24v24H0z" fill="none"/></g>
          </symbol>
            <symbol id="article-icon" viewBox="0 0 26 21">
             <g>
                <path d="M25.0714 1.09096e-06H18.4321C17.0074 1.09096e-06 15.6145 0.421436 14.4161 1.21648L13 2.15201L11.5839 1.21648C10.3867 0.421588 8.99227 -0.000783452 7.56786 1.09096e-06H0.928571C0.414955 1.09096e-06 0 0.427414 0 0.956449V17.9334C0 18.4624 0.414955 18.8898 0.928571 18.8898H7.56786C8.99263 18.8898 10.3855 19.3113 11.5839 20.1063L12.8723 20.9611C12.91 20.9851 12.9536 21 12.9971 21C13.0406 21 13.0842 20.988 13.1219 20.9611L14.4103 20.1063C15.6116 19.3113 17.0074 18.8898 18.4321 18.8898H25.0714C25.585 18.8898 26 18.4624 26 17.9334V0.956449C26 0.427414 25.585 1.09096e-06 25.0714 1.09096e-06ZM7.56786 16.7378H2.08929V2.15201H7.56786C8.59509 2.15201 9.5933 2.45389 10.4551 3.02477L11.8712 3.96029L12.0714 4.09479V17.9035C10.6902 17.1383 9.14643 16.7378 7.56786 16.7378ZM23.9107 16.7378H18.4321C16.8536 16.7378 15.3098 17.1383 13.9286 17.9035V4.09479L14.1288 3.96029L15.5449 3.02477C16.4067 2.45389 17.4049 2.15201 18.4321 2.15201H23.9107V16.7378ZM9.66004 5.9778H4.26853C4.15536 5.9778 4.0625 6.07942 4.0625 6.20196V7.54697C4.0625 7.66951 4.15536 7.77114 4.26853 7.77114H9.65714C9.77031 7.77114 9.86317 7.66951 9.86317 7.54697V6.20196C9.86607 6.07942 9.77321 5.9778 9.66004 5.9778ZM16.1339 6.20196V7.54697C16.1339 7.66951 16.2268 7.77114 16.34 7.77114H21.7286C21.8417 7.77114 21.9346 7.66951 21.9346 7.54697V6.20196C21.9346 6.07942 21.8417 5.9778 21.7286 5.9778H16.34C16.2268 5.9778 16.1339 6.07942 16.1339 6.20196ZM9.66004 10.1623H4.26853C4.15536 10.1623 4.0625 10.2639 4.0625 10.3864V11.7314C4.0625 11.854 4.15536 11.9556 4.26853 11.9556H9.65714C9.77031 11.9556 9.86317 11.854 9.86317 11.7314V10.3864C9.86607 10.2639 9.77321 10.1623 9.66004 10.1623ZM21.7315 10.1623H16.34C16.2268 10.1623 16.1339 10.2639 16.1339 10.3864V11.7314C16.1339 11.854 16.2268 11.9556 16.34 11.9556H21.7286C21.8417 11.9556 21.9346 11.854 21.9346 11.7314V10.3864C21.9375 10.2639 21.8446 10.1623 21.7315 10.1623Z" />
             </g>
          </symbol>
        </svg>